<svg width="332" height="54" viewBox="0 0 332 54" fill="none" xmlns="http://www.w3.org/2000/svg">
<path d="M81.272 24.032C81.272 24.704 81.608 25.232 82.28 25.616C82.984 26 84.072 26.416 85.544 26.864C87.304 27.44 88.744 28 89.864 28.544C91.016 29.088 92.008 29.936 92.84 31.088C93.704 32.24 94.136 33.744 94.136 35.6C94.136 41.552 90.264 44.528 82.52 44.528C81.24 44.528 79.672 44.416 77.816 44.192C75.992 43.968 74.328 43.68 72.824 43.328C72.888 42.656 73.016 41.68 73.208 40.4C73.432 39.088 73.64 38.112 73.832 37.472C74.952 37.632 76.632 37.824 78.872 38.048C81.144 38.272 82.856 38.384 84.008 38.384C84.68 38.384 85.08 38.336 85.208 38.24C85.4 38.112 85.544 37.904 85.64 37.616C85.768 37.296 85.832 37.024 85.832 36.8C85.832 36.16 85.528 35.68 84.92 35.36C84.312 35.008 83.272 34.592 81.8 34.112C80.04 33.568 78.584 33.008 77.432 32.432C76.28 31.856 75.272 30.96 74.408 29.744C73.544 28.528 73.112 26.928 73.112 24.944C73.112 23.536 73.432 22.16 74.072 20.816C74.712 19.44 75.368 18.512 76.04 18.032C76.552 17.68 77.608 17.344 79.208 17.024C80.808 16.704 82.312 16.544 83.72 16.544C87.304 16.544 90.232 16.88 92.504 17.552C92.472 18.192 92.36 19.072 92.168 20.192C92.008 21.312 91.832 22.336 91.64 23.264L90.536 23.216C86.376 22.928 83.72 22.784 82.568 22.784C82.088 22.784 81.816 22.8 81.752 22.832C81.624 22.896 81.512 23.04 81.416 23.264C81.32 23.488 81.272 23.744 81.272 24.032ZM112.839 21.44C115.143 21.44 116.967 22.208 118.311 23.744C119.687 25.248 120.375 27.888 120.375 31.664C120.375 34.48 120.103 36.784 119.559 38.576C119.015 40.336 118.391 41.504 117.687 42.08C116.983 42.656 115.751 43.12 113.991 43.472C112.263 43.824 110.471 44 108.615 44C108.071 44 107.159 43.968 105.879 43.904V50.72L97.6711 51.056V21.92H104.391L105.207 25.328C106.039 24.144 107.095 23.2 108.375 22.496C109.687 21.792 111.175 21.44 112.839 21.44ZM110.919 38.144C111.271 37.888 111.527 37.168 111.687 35.984C111.847 34.768 111.927 33.616 111.927 32.528C111.927 30.736 111.703 29.408 111.255 28.544C110.807 27.68 109.911 27.248 108.567 27.248C107.607 27.248 106.711 27.344 105.879 27.536V38.192L107.223 38.336C107.639 38.368 108.231 38.384 108.999 38.384C110.087 38.384 110.727 38.304 110.919 38.144ZM134.249 44.624C130.409 44.624 127.529 43.728 125.609 41.936C123.721 40.112 122.777 37.248 122.777 33.344C122.777 31.2 122.969 29.328 123.353 27.728C123.769 26.096 124.265 24.96 124.841 24.32C125.577 23.488 126.921 22.8 128.873 22.256C130.857 21.712 132.713 21.44 134.441 21.44C138.569 21.44 141.513 22.32 143.273 24.08C145.033 25.84 145.913 28.656 145.913 32.528C145.913 36.688 144.969 39.744 143.081 41.696C141.193 43.648 138.249 44.624 134.249 44.624ZM134.393 39.008C135.641 39.008 136.457 38.576 136.841 37.712C137.225 36.816 137.417 35.248 137.417 33.008C137.417 31.44 137.337 30.24 137.177 29.408C137.017 28.544 136.713 27.92 136.265 27.536C135.849 27.12 135.193 26.912 134.297 26.912C133.017 26.912 132.281 27.024 132.089 27.248C131.833 27.472 131.625 28.176 131.465 29.36C131.305 30.544 131.225 31.776 131.225 33.056C131.225 35.232 131.433 36.768 131.849 37.664C132.297 38.56 133.145 39.008 134.393 39.008ZM162.726 21.44C163.142 21.44 163.574 21.488 164.022 21.584C164.502 21.68 164.854 21.792 165.078 21.92C165.078 22.624 164.998 23.792 164.838 25.424C164.678 27.024 164.534 28.16 164.406 28.832C164.086 28.8 163.494 28.784 162.63 28.784C160.614 28.784 158.822 28.896 157.254 29.12V44H149.046V21.92H155.91L156.87 25.472H156.918C157.846 24.256 158.838 23.28 159.894 22.544C160.95 21.808 161.894 21.44 162.726 21.44ZM177.41 34.928C177.41 35.504 177.426 36.112 177.458 36.752C177.49 37.36 177.586 37.744 177.746 37.904C177.97 38.128 178.754 38.24 180.098 38.24L181.73 38.192C182.018 39.728 182.162 41.504 182.162 43.52C181.554 43.744 180.658 43.952 179.474 44.144C178.322 44.336 177.218 44.432 176.162 44.432C173.954 44.432 172.242 43.952 171.026 42.992C169.842 42 169.25 40.48 169.25 38.432V26.624H165.65V22.256L169.25 21.92L171.41 16.64L177.41 16.304V21.92H182.498V26.624H177.41V34.928ZM200.475 24.032C200.475 24.704 200.811 25.232 201.483 25.616C202.187 26 203.275 26.416 204.747 26.864C206.507 27.44 207.947 28 209.067 28.544C210.219 29.088 211.211 29.936 212.043 31.088C212.907 32.24 213.339 33.744 213.339 35.6C213.339 41.552 209.467 44.528 201.723 44.528C200.443 44.528 198.875 44.416 197.019 44.192C195.195 43.968 193.531 43.68 192.027 43.328C192.091 42.656 192.219 41.68 192.411 40.4C192.635 39.088 192.843 38.112 193.035 37.472C194.155 37.632 195.835 37.824 198.075 38.048C200.347 38.272 202.059 38.384 203.211 38.384C203.883 38.384 204.283 38.336 204.411 38.24C204.603 38.112 204.747 37.904 204.843 37.616C204.971 37.296 205.035 37.024 205.035 36.8C205.035 36.16 204.731 35.68 204.123 35.36C203.515 35.008 202.475 34.592 201.003 34.112C199.243 33.568 197.787 33.008 196.635 32.432C195.483 31.856 194.475 30.96 193.611 29.744C192.747 28.528 192.315 26.928 192.315 24.944C192.315 23.536 192.635 22.16 193.275 20.816C193.915 19.44 194.571 18.512 195.243 18.032C195.755 17.68 196.811 17.344 198.411 17.024C200.011 16.704 201.515 16.544 202.923 16.544C206.507 16.544 209.435 16.88 211.707 17.552C211.675 18.192 211.563 19.072 211.371 20.192C211.211 21.312 211.035 22.336 210.843 23.264L209.739 23.216C205.579 22.928 202.923 22.784 201.771 22.784C201.291 22.784 201.019 22.8 200.955 22.832C200.827 22.896 200.715 23.04 200.619 23.264C200.523 23.488 200.475 23.744 200.475 24.032ZM232.042 21.44C234.346 21.44 236.17 22.208 237.514 23.744C238.89 25.248 239.578 27.888 239.578 31.664C239.578 34.48 239.306 36.784 238.762 38.576C238.218 40.336 237.594 41.504 236.89 42.08C236.186 42.656 234.954 43.12 233.194 43.472C231.466 43.824 229.674 44 227.818 44C227.274 44 226.362 43.968 225.082 43.904V50.72L216.874 51.056V21.92H223.594L224.41 25.328C225.242 24.144 226.298 23.2 227.578 22.496C228.89 21.792 230.378 21.44 232.042 21.44ZM230.122 38.144C230.474 37.888 230.73 37.168 230.89 35.984C231.05 34.768 231.13 33.616 231.13 32.528C231.13 30.736 230.906 29.408 230.458 28.544C230.01 27.68 229.114 27.248 227.77 27.248C226.81 27.248 225.914 27.344 225.082 27.536V38.192L226.426 38.336C226.842 38.368 227.434 38.384 228.202 38.384C229.29 38.384 229.93 38.304 230.122 38.144ZM264.156 23.312C264.444 23.664 264.652 24.544 264.78 25.952C264.94 27.36 265.02 29.504 265.02 32.384V44H256.812V32.48C256.812 32.352 256.812 31.728 256.812 30.608C256.812 29.456 256.732 28.752 256.572 28.496C256.476 28.368 256.236 28.272 255.852 28.208C255.5 28.144 255.084 28.112 254.604 28.112L253.788 28.16C252.892 28.192 251.964 28.4 251.004 28.784V44H242.796V15.2L251.004 14.864V20.48C251.004 22.784 250.924 24.32 250.764 25.088L250.812 25.136C252.988 22.672 255.596 21.44 258.636 21.44C259.788 21.44 260.86 21.6 261.852 21.92C262.876 22.24 263.644 22.704 264.156 23.312ZM282.204 38.24C283.004 38.24 284.492 38.16 286.668 38C286.956 38 287.484 37.968 288.252 37.904L288.972 42.848C286.508 44 283.308 44.576 279.372 44.576C275.692 44.576 272.86 43.648 270.876 41.792C268.924 39.936 267.948 37.136 267.948 33.392C267.948 31.472 268.188 29.616 268.668 27.824C269.18 26.032 269.756 24.784 270.396 24.08C271.068 23.376 272.316 22.768 274.14 22.256C275.964 21.744 277.772 21.488 279.564 21.488C282.444 21.488 284.604 22 286.044 23.024C287.484 24.048 288.428 25.472 288.876 27.296C289.324 29.088 289.548 31.504 289.548 34.544C287.372 34.672 285.244 34.736 283.164 34.736H276.348C276.348 35.76 276.556 36.528 276.972 37.04C277.42 37.552 278.044 37.888 278.844 38.048C279.644 38.176 280.764 38.24 282.204 38.24ZM276.828 27.2C276.636 27.296 276.492 27.712 276.396 28.448C276.3 29.184 276.236 30.016 276.204 30.944H278.7C280.204 30.944 281.292 30.928 281.964 30.896C281.964 29.36 281.74 28.272 281.292 27.632C280.876 26.992 280.14 26.672 279.084 26.672C278.22 26.672 277.468 26.848 276.828 27.2ZM306.117 21.44C306.533 21.44 306.965 21.488 307.413 21.584C307.893 21.68 308.245 21.792 308.469 21.92C308.469 22.624 308.389 23.792 308.229 25.424C308.069 27.024 307.925 28.16 307.797 28.832C307.477 28.8 306.885 28.784 306.021 28.784C304.005 28.784 302.213 28.896 300.645 29.12V44H292.437V21.92H299.301L300.261 25.472H300.309C301.237 24.256 302.229 23.28 303.285 22.544C304.341 21.808 305.285 21.44 306.117 21.44ZM324.016 38.24C324.816 38.24 326.304 38.16 328.48 38C328.768 38 329.296 37.968 330.064 37.904L330.784 42.848C328.32 44 325.12 44.576 321.184 44.576C317.504 44.576 314.672 43.648 312.688 41.792C310.736 39.936 309.76 37.136 309.76 33.392C309.76 31.472 310 29.616 310.48 27.824C310.992 26.032 311.568 24.784 312.208 24.08C312.88 23.376 314.128 22.768 315.952 22.256C317.776 21.744 319.584 21.488 321.376 21.488C324.256 21.488 326.416 22 327.856 23.024C329.296 24.048 330.24 25.472 330.688 27.296C331.136 29.088 331.36 31.504 331.36 34.544C329.184 34.672 327.056 34.736 324.976 34.736H318.16C318.16 35.76 318.368 36.528 318.784 37.04C319.232 37.552 319.856 37.888 320.656 38.048C321.456 38.176 322.576 38.24 324.016 38.24ZM318.64 27.2C318.448 27.296 318.304 27.712 318.208 28.448C318.112 29.184 318.048 30.016 318.016 30.944H320.512C322.016 30.944 323.104 30.928 323.776 30.896C323.776 29.36 323.552 28.272 323.104 27.632C322.688 26.992 321.952 26.672 320.896 26.672C320.032 26.672 319.28 26.848 318.64 27.2Z" fill="#FFE047"/>
<path d="M54.3874 15C53.9413 16.3474 53.5041 17.672 53.058 18.9808C49.0164 19.4829 44.9836 19.4836 40.942 18.9808C40.4959 17.672 40.0587 16.3474 39.6126 15C44.5108 16.5594 49.4892 16.5594 54.3874 15ZM55.9309 15.317L59 18.4904C57.7509 25.1377 55.4312 32.5896 52.0855 39.413C51.1309 38.5566 49.8372 37.9419 48.3561 37.7071C50.881 30.0204 53.4059 23.0451 55.9309 15.317ZM38.0691 15.317C40.5941 23.0451 43.119 30.0204 45.6439 37.7071C44.1628 37.9419 42.8691 38.5566 41.9145 39.413C38.5688 32.5896 36.2491 25.1377 35 18.4904L38.0691 15.317ZM47 38.8398C49.8193 38.8398 52.0855 40.594 52.0855 42.7763C52.0855 44.9587 49.8193 46.7129 47 46.7129C44.1807 46.7129 41.9145 44.9587 41.9145 42.7763C41.9145 40.594 44.1807 38.8398 47 38.8398Z" fill="white"/>
</svg>
