<svg width="24" height="31" viewBox="0 0 24 31" fill="none" xmlns="http://www.w3.org/2000/svg">
<path d="M19.3874 0.816406C18.9413 2.09248 18.5041 3.34697 18.058 4.58642C14.0164 5.06192 9.98364 5.06258 5.94201 4.58642C5.49591 3.34697 5.05874 2.09248 4.61264 0.816406C9.51078 2.29328 14.4892 2.29328 19.3874 0.816406ZM20.9309 1.11662L24 4.12203C22.7509 10.4174 20.4312 17.4747 17.0855 23.9368C16.1309 23.1258 14.8372 22.5437 13.3561 22.3213C15.881 15.0416 18.4059 8.43557 20.9309 1.11662ZM3.06914 1.11662C5.59405 8.43557 8.11896 15.0416 10.6439 22.3213C9.16283 22.5437 7.86914 23.1258 6.9145 23.9368C3.56877 17.4747 1.24907 10.4174 0 4.12203L3.06914 1.11662ZM12 23.394C14.8193 23.394 17.0855 25.0553 17.0855 27.1221C17.0855 29.189 14.8193 30.8503 12 30.8503C9.18067 30.8503 6.9145 29.189 6.9145 27.1221C6.9145 25.0553 9.18067 23.394 12 23.394Z" fill="white"/>
</svg>
